<svg width="30" height="30" viewBox="0 0 30 30" fill="none" xmlns="http://www.w3.org/2000/svg">
<circle cx="15" cy="15" r="15" fill="#333D61"/>
<path fillRule="evenodd" clipRule="evenodd" d="M19.4764 9.67671H16.5282C16.3693 9.67671 16.2169 9.61358 16.1045 9.5012C15.9921 9.38883 15.929 9.23641 15.929 9.07749C15.929 8.91856 15.9921 8.76615 16.1045 8.65377C16.2169 8.54139 16.3693 8.47826 16.5282 8.47826H20.1236C20.8962 8.47826 21.5217 9.10385 21.5217 9.87645V13.4718C21.5217 13.6307 21.4586 13.7831 21.3462 13.8955C21.2339 14.0079 21.0814 14.071 20.9225 14.071C20.7636 14.071 20.6112 14.0079 20.4988 13.8955C20.3864 13.7831 20.3233 13.6307 20.3233 13.4718V10.5244L16.7144 14.1325C17.3925 15.017 17.7262 16.1178 17.6533 17.23C17.5804 18.3421 17.1059 19.3899 16.3181 20.1783C15.4564 21.0391 14.2882 21.5225 13.0703 21.5225C11.8523 21.5225 10.6842 21.0391 9.82249 20.1783C8.96175 19.3166 8.47827 18.1485 8.47827 16.9305C8.47827 15.7126 8.96175 14.5444 9.82249 13.6827C10.6107 12.895 11.6583 12.4205 12.7703 12.3474C13.8823 12.2744 14.9829 12.6078 15.8675 13.2856L19.4764 9.67671ZM10.6678 19.3314C10.0319 18.6942 9.67473 17.8308 9.67473 16.9305C9.67473 16.0303 10.0319 15.1668 10.6678 14.5296C11.305 13.8935 12.1687 13.5362 13.0691 13.5362C13.9695 13.5362 14.8331 13.8935 15.4704 14.5296C16.1063 15.1668 16.4634 16.0303 16.4634 16.9305C16.4634 17.8308 16.1063 18.6942 15.4704 19.3314C14.8332 19.9673 13.9697 20.3245 13.0695 20.3245C12.1693 20.3245 11.305 19.9673 10.6678 19.3314Z" fill="white"/>
</svg>
