<svg width="27" height="20" viewBox="0 0 27 20" fill="none" xmlns="http://www.w3.org/2000/svg">
<path d="M13.4997 8.4956L25.8233 0.578815C25.3278 0.207193 24.7262 0.00439159 24.1069 0.000244141H2.89259C2.27327 0.00439159 1.67162 0.207193 1.17616 0.578815L13.4997 8.4956Z" fill="#ACB2C6"/>
<path d="M14.0207 10.4528L13.8568 10.5299H13.7796C13.6909 10.5696 13.5966 10.5956 13.5 10.6071C13.42 10.6171 13.339 10.6171 13.2589 10.6071H13.1818L13.0179 10.5299L0.0964285 2.1792C0.0346932 2.41211 0.00229954 2.65183 0 2.89277V16.3928C0 17.16 0.304782 17.8958 0.847298 18.4383C1.38981 18.9808 2.12562 19.2856 2.89286 19.2856H24.1071C24.8744 19.2856 25.6102 18.9808 26.1527 18.4383C26.6952 17.8958 27 17.16 27 16.3928V2.89277C26.9977 2.65183 26.9653 2.41211 26.9036 2.1792L14.0207 10.4528Z" fill="#ACB2C6"/>
</svg>
