<svg width="30" height="30" viewBox="0 0 30 30" fill="none" xmlns="http://www.w3.org/2000/svg">
<circle cx="15" cy="15" r="15" fill="#FFB390"/>
<path d="M20.2175 13.0496C20.2187 12.0493 19.9322 11.0697 19.3923 10.2275C18.8524 9.38542 18.0818 8.71626 17.1723 8.29978C16.2628 7.8833 15.2527 7.73707 14.2624 7.8785C13.2722 8.01993 12.3434 8.44307 11.5868 9.0975C10.8303 9.75193 10.2778 10.6101 9.99521 11.5697C9.71263 12.5293 9.71187 13.5499 9.99302 14.5099C10.2742 15.4699 10.8254 16.3288 11.581 16.9844C12.3366 17.6399 13.2647 18.0645 14.2548 18.2074V19.7577H13.5094C13.3117 19.7577 13.1222 19.8362 12.9824 19.976C12.8426 20.1158 12.7641 20.3053 12.7641 20.503C12.7641 20.7007 12.8426 20.8903 12.9824 21.03C13.1222 21.1698 13.3117 21.2484 13.5094 21.2484H14.2548V21.9937C14.2548 22.1914 14.3333 22.381 14.4731 22.5207C14.6128 22.6605 14.8024 22.739 15.0001 22.739C15.1978 22.739 15.3874 22.6605 15.5271 22.5207C15.6669 22.381 15.7454 22.1914 15.7454 21.9937V21.2484H16.4908C16.6885 21.2484 16.878 21.1698 17.0178 21.03C17.1576 20.8903 17.2361 20.7007 17.2361 20.503C17.2361 20.3053 17.1576 20.1158 17.0178 19.976C16.878 19.8362 16.6885 19.7577 16.4908 19.7577H15.7454V18.2074C16.9861 18.0283 18.1209 17.4085 18.9421 16.4614C19.7633 15.5143 20.216 14.3031 20.2175 13.0496ZM15.0001 16.7763C14.263 16.7763 13.5425 16.5577 12.9297 16.1482C12.3168 15.7387 11.8391 15.1567 11.5571 14.4757C11.275 13.7948 11.2012 13.0455 11.345 12.3226C11.4888 11.5996 11.8437 10.9356 12.3649 10.4144C12.8861 9.89323 13.5501 9.53829 14.2731 9.39449C14.996 9.2507 15.7453 9.3245 16.4263 9.60657C17.1072 9.88863 17.6893 10.3663 18.0987 10.9791C18.5082 11.592 18.7268 12.3125 18.7268 13.0496C18.7268 13.539 18.6304 14.0236 18.4431 14.4757C18.2558 14.9279 17.9813 15.3387 17.6353 15.6848C17.2892 16.0308 16.8784 16.3053 16.4263 16.4926C15.9741 16.6799 15.4895 16.7763 15.0001 16.7763Z" fill="white"/>
</svg>
