<svg width="50" height="51" viewBox="0 0 50 51" fill="none" xmlns="http://www.w3.org/2000/svg">
<circle cx="24.9436" cy="25.2366" r="24.9436" fill="#333D61"/>
<path fillRule="evenodd" clipRule="evenodd" d="M28.4594 33.7307C27.948 33.6576 27.5927 33.1837 27.6659 32.6723L29.1796 22.0833L18.9468 18.9678C18.4525 18.8174 18.1738 18.2948 18.3243 17.8005C18.4748 17.3064 18.9974 17.0277 19.4917 17.1781L30.4916 20.5272C30.9329 20.6616 31.2103 21.0977 31.1451 21.5544L29.5178 32.9371C29.4447 33.4485 28.9708 33.8038 28.4594 33.7307Z" fill="white"/>
<path fillRule="evenodd" clipRule="evenodd" d="M24.2504 36.4087C23.739 36.3355 23.3837 35.8617 23.4568 35.3503L24.9706 24.7613L14.7378 21.6458C14.2436 21.4954 13.9649 20.9727 14.1153 20.4785C14.2658 19.9844 14.7884 19.7057 15.2826 19.8562L26.2826 23.2051C26.7239 23.3396 27.0013 23.7756 26.9361 24.2324L25.3088 35.6151C25.2357 36.1265 24.7618 36.4818 24.2504 36.4087Z" fill="#FBFBFB" fillOpacity="0.6"/>
</svg>
