<svg width="25" height="20" viewBox="0 0 25 20" fill="none" xmlns="http://www.w3.org/2000/svg">
<path d="M13.75 10L16.1194 12.7083L19.3055 14.7444L19.8611 10.0181L19.3055 5.39583L16.0583 7.18471L13.75 10ZM0 14.3055V18.3333C0 19.2541 0.74583 20 1.66666 20H5.69443L6.52775 16.9555L5.69443 14.3055L2.93055 13.4722L0 14.3055ZM5.69443 0L0 5.69443L2.93055 6.52775L5.69443 5.69443L6.51388 3.07915L5.69443 0Z" fill="#ACB2C6"/>
<path d="M5.69443 5.69443H0V14.3055H5.69443V5.69443ZM22.943 2.41111L19.3055 5.39583V14.7444L22.9583 17.7402C23.5055 18.168 24.3055 17.7778 24.3055 17.0833V3.05556C24.3055 2.35139 23.4874 1.96528 22.943 2.41111ZM13.75 10V14.3055H5.69443V20L17.6389 20C18.5597 20 19.3055 19.2541 19.3055 18.3333V14.7444L13.75 10ZM17.6389 0H5.69443V5.69443H13.75V10L19.3055 5.39583V1.66666C19.3055 0.74583 18.5597 0 17.6389 0Z" fill="#ACB2C6"/>
</svg>
