<svg width="13" height="15" viewBox="0 0 13 15" fill="none" xmlns="http://www.w3.org/2000/svg">
<path d="M0.610107 13.4375V6H12.8601V13.4375C12.8601 14.1758 12.2585 14.75 11.5476 14.75H1.92261C1.18433 14.75 0.610107 14.1758 0.610107 13.4375ZM9.36011 8.07812V9.17188C9.36011 9.36328 9.49683 9.5 9.68823 9.5H10.782C10.946 9.5 11.1101 9.36328 11.1101 9.17188V8.07812C11.1101 7.91406 10.946 7.75 10.782 7.75H9.68823C9.49683 7.75 9.36011 7.91406 9.36011 8.07812ZM9.36011 11.5781V12.6719C9.36011 12.8633 9.49683 13 9.68823 13H10.782C10.946 13 11.1101 12.8633 11.1101 12.6719V11.5781C11.1101 11.4141 10.946 11.25 10.782 11.25H9.68823C9.49683 11.25 9.36011 11.4141 9.36011 11.5781ZM5.86011 8.07812V9.17188C5.86011 9.36328 5.99683 9.5 6.18823 9.5H7.28198C7.44604 9.5 7.61011 9.36328 7.61011 9.17188V8.07812C7.61011 7.91406 7.44604 7.75 7.28198 7.75H6.18823C5.99683 7.75 5.86011 7.91406 5.86011 8.07812ZM5.86011 11.5781V12.6719C5.86011 12.8633 5.99683 13 6.18823 13H7.28198C7.44604 13 7.61011 12.8633 7.61011 12.6719V11.5781C7.61011 11.4141 7.44604 11.25 7.28198 11.25H6.18823C5.99683 11.25 5.86011 11.4141 5.86011 11.5781ZM2.36011 8.07812V9.17188C2.36011 9.36328 2.49683 9.5 2.68823 9.5H3.78198C3.94604 9.5 4.11011 9.36328 4.11011 9.17188V8.07812C4.11011 7.91406 3.94604 7.75 3.78198 7.75H2.68823C2.49683 7.75 2.36011 7.91406 2.36011 8.07812ZM2.36011 11.5781V12.6719C2.36011 12.8633 2.49683 13 2.68823 13H3.78198C3.94604 13 4.11011 12.8633 4.11011 12.6719V11.5781C4.11011 11.4141 3.94604 11.25 3.78198 11.25H2.68823C2.49683 11.25 2.36011 11.4141 2.36011 11.5781ZM11.5476 2.5C12.2585 2.5 12.8601 3.10156 12.8601 3.8125V5.125H0.610107V3.8125C0.610107 3.10156 1.18433 2.5 1.92261 2.5H3.23511V1.1875C3.23511 0.96875 3.42651 0.75 3.67261 0.75H4.54761C4.76636 0.75 4.98511 0.96875 4.98511 1.1875V2.5H8.48511V1.1875C8.48511 0.96875 8.67651 0.75 8.92261 0.75H9.79761C10.0164 0.75 10.2351 0.96875 10.2351 1.1875V2.5H11.5476Z" fill="#A098AE"/>
</svg>
