<svg width="14" height="15" viewBox="0 0 14 15" fill="none" xmlns="http://www.w3.org/2000/svg">
<path d="M7.13013 0.96875C10.8762 0.96875 13.9114 4.00391 13.9114 7.75C13.9114 11.4961 10.8762 14.5312 7.13013 14.5312C3.38403 14.5312 0.348877 11.4961 0.348877 7.75C0.348877 4.00391 3.38403 0.96875 7.13013 0.96875ZM9.64575 9.52734C9.70044 9.47266 9.75513 9.36328 9.75513 9.25391C9.75513 9.11719 9.6731 9.00781 9.59106 8.92578L8.00513 7.75V3.8125C8.00513 3.59375 7.78638 3.375 7.56763 3.375H6.69263C6.44653 3.375 6.25513 3.59375 6.25513 3.8125V8.07812C6.25513 8.43359 6.39185 8.73438 6.66528 8.92578L8.49731 10.293C8.552 10.3477 8.66138 10.4023 8.74341 10.4023C8.90747 10.4023 9.01685 10.3203 9.09888 10.2109L9.64575 9.52734Z" fill="#A098AE"/>
</svg>
