<svg width="13" height="15" viewBox="0 0 13 15" fill="none" xmlns="http://www.w3.org/2000/svg">
<path d="M0.218994 13.3699V5.86455H12.5808V13.3699C12.5808 14.115 11.9738 14.6944 11.2563 14.6944H1.54348C0.798455 14.6944 0.218994 14.115 0.218994 13.3699ZM9.04887 7.96165V9.06538C9.04887 9.25854 9.18683 9.3965 9.37999 9.3965H10.4837C10.6493 9.3965 10.8148 9.25854 10.8148 9.06538V7.96165C10.8148 7.79609 10.6493 7.63053 10.4837 7.63053H9.37999C9.18683 7.63053 9.04887 7.79609 9.04887 7.96165ZM9.04887 11.4936V12.5973C9.04887 12.7905 9.18683 12.9285 9.37999 12.9285H10.4837C10.6493 12.9285 10.8148 12.7905 10.8148 12.5973V11.4936C10.8148 11.328 10.6493 11.1625 10.4837 11.1625H9.37999C9.18683 11.1625 9.04887 11.328 9.04887 11.4936ZM5.51692 7.96165V9.06538C5.51692 9.25854 5.65489 9.3965 5.84804 9.3965H6.95177C7.11733 9.3965 7.28289 9.25854 7.28289 9.06538V7.96165C7.28289 7.79609 7.11733 7.63053 6.95177 7.63053H5.84804C5.65489 7.63053 5.51692 7.79609 5.51692 7.96165ZM5.51692 11.4936V12.5973C5.51692 12.7905 5.65489 12.9285 5.84804 12.9285H6.95177C7.11733 12.9285 7.28289 12.7905 7.28289 12.5973V11.4936C7.28289 11.328 7.11733 11.1625 6.95177 11.1625H5.84804C5.65489 11.1625 5.51692 11.328 5.51692 11.4936ZM1.98497 7.96165V9.06538C1.98497 9.25854 2.12294 9.3965 2.31609 9.3965H3.41982C3.58538 9.3965 3.75094 9.25854 3.75094 9.06538V7.96165C3.75094 7.79609 3.58538 7.63053 3.41982 7.63053H2.31609C2.12294 7.63053 1.98497 7.79609 1.98497 7.96165ZM1.98497 11.4936V12.5973C1.98497 12.7905 2.12294 12.9285 2.31609 12.9285H3.41982C3.58538 12.9285 3.75094 12.7905 3.75094 12.5973V11.4936C3.75094 11.328 3.58538 11.1625 3.41982 11.1625H2.31609C2.12294 11.1625 1.98497 11.328 1.98497 11.4936ZM11.2563 2.3326C11.9738 2.3326 12.5808 2.93966 12.5808 3.65708V4.98157H0.218994V3.65708C0.218994 2.93966 0.798455 2.3326 1.54348 2.3326H2.86796V1.00812C2.86796 0.787375 3.06111 0.566628 3.30945 0.566628H4.19244C4.41318 0.566628 4.63393 0.787375 4.63393 1.00812V2.3326H8.16588V1.00812C8.16588 0.787375 8.35903 0.566628 8.60737 0.566628H9.49036C9.71111 0.566628 9.93186 0.787375 9.93186 1.00812V2.3326H11.2563Z" fill="#A098AE"/>
</svg>
