<svg width="15" height="14" viewBox="0 0 15 14" fill="none" xmlns="http://www.w3.org/2000/svg">
<path d="M7.63079 0.177405C11.4111 0.177405 14.4739 3.24027 14.4739 7.02056C14.4739 10.8008 11.4111 13.8637 7.63079 13.8637C3.8505 13.8637 0.787641 10.8008 0.787641 7.02056C0.787641 3.24027 3.8505 0.177405 7.63079 0.177405ZM10.1694 8.81413C10.2246 8.75894 10.2798 8.64857 10.2798 8.53819C10.2798 8.40022 10.197 8.28985 10.1142 8.20707L8.51378 7.02056V3.04711C8.51378 2.82637 8.29303 2.60562 8.07229 2.60562H7.1893C6.94096 2.60562 6.74781 2.82637 6.74781 3.04711V7.35168C6.74781 7.71039 6.88577 8.01392 7.16171 8.20707L9.01046 9.58674C9.06565 9.64193 9.17602 9.69711 9.2588 9.69711C9.42436 9.69711 9.53474 9.61433 9.61752 9.50396L10.1694 8.81413Z" fill="#A098AE"/>
</svg>
