<svg width="27" height="34" viewBox="0 0 27 34" fill="none" xmlns="http://www.w3.org/2000/svg">
<path d="M13.5 0C9.92081 0.00401981 6.48937 1.42763 3.9585 3.9585C1.42763 6.48937 0.00401981 9.92081 0 13.5C0 18.9928 3.98756 23.5541 8.21137 28.3821C9.54787 29.9109 10.9316 31.4921 12.1635 33.0919C12.3211 33.2964 12.5236 33.462 12.7553 33.5759C12.987 33.6899 13.2418 33.7491 13.5 33.7491C13.7582 33.7491 14.013 33.6899 14.2447 33.5759C14.4764 33.462 14.6789 33.2964 14.8365 33.0919C16.0684 31.4921 17.4521 29.9109 18.7886 28.3821C23.0124 23.5541 27 18.9928 27 13.5C26.996 9.92081 25.5724 6.48937 23.0415 3.9585C20.5106 1.42763 17.0792 0.00401981 13.5 0ZM13.5 18.5625C12.4987 18.5625 11.5199 18.2656 10.6874 17.7093C9.8549 17.153 9.20603 16.3624 8.82286 15.4373C8.43969 14.5123 8.33944 13.4944 8.53477 12.5124C8.73011 11.5303 9.21227 10.6283 9.92027 9.92027C10.6283 9.21227 11.5303 8.73011 12.5124 8.53477C13.4944 8.33944 14.5123 8.43969 15.4373 8.82286C16.3624 9.20603 17.153 9.8549 17.7093 10.6874C18.2656 11.5199 18.5625 12.4987 18.5625 13.5C18.5625 14.8427 18.0291 16.1303 17.0797 17.0797C16.1303 18.0291 14.8427 18.5625 13.5 18.5625Z" fill="#ACB2C6"/>
</svg>
