<svg width="27" height="23" viewBox="0 0 27 23" fill="none" xmlns="http://www.w3.org/2000/svg">
<path d="M13.1902 7.43885C12.3696 7.43841 11.5789 7.74709 10.9757 8.3034C10.8541 8.20053 10.7004 8.1433 10.5411 8.14159C10.0486 8.14575 9.56002 8.05307 9.10324 7.86882C9.75081 7.02455 10.1481 6.0153 10.2498 4.95615H10.5549C10.7389 4.95615 10.9153 4.88309 11.0453 4.75303C11.1754 4.62298 11.2484 4.44659 11.2484 4.26266C11.2484 4.07874 11.1754 3.90234 11.0453 3.77229C10.9153 3.64223 10.7389 3.56917 10.5549 3.56917H8.57156V2.49195C8.57156 2.30802 8.4985 2.13163 8.36844 2.00157C8.23839 1.87152 8.06199 1.79845 7.87807 1.79845C7.69414 1.79845 7.51775 1.87152 7.3877 2.00157C7.25764 2.13163 7.18458 2.30802 7.18458 2.49195V3.57379H5.21506C5.03114 3.57379 4.85474 3.64686 4.72469 3.77691C4.59463 3.90697 4.52157 4.08336 4.52157 4.26728C4.52157 4.45121 4.59463 4.6276 4.72469 4.75766C4.85474 4.88771 5.03114 4.96078 5.21506 4.96078H8.83971C8.74575 5.73103 8.43829 6.45966 7.95204 7.06437C7.59962 6.66685 7.32375 6.20759 7.13834 5.70975C7.1131 5.61783 7.06919 5.5321 7.00933 5.45792C6.94948 5.38373 6.87498 5.32268 6.79047 5.27858C6.70597 5.23448 6.61328 5.20827 6.5182 5.20159C6.42311 5.19491 6.32767 5.20791 6.23783 5.23976C6.14799 5.27162 6.06568 5.32166 5.99605 5.38675C5.92641 5.45184 5.87094 5.53058 5.8331 5.61807C5.79526 5.70556 5.77586 5.79991 5.77612 5.89523C5.77637 5.99055 5.79627 6.08479 5.83458 6.17207C6.06182 6.78295 6.39174 7.35053 6.81009 7.85032C6.30519 8.04145 5.76874 8.13556 5.22893 8.12772C5.04501 8.12772 4.86861 8.20078 4.73856 8.33084C4.6085 8.46089 4.53544 8.63729 4.53544 8.82121C4.53544 9.00514 4.6085 9.18153 4.73856 9.31158C4.86861 9.44164 5.04501 9.5147 5.22893 9.5147C6.1799 9.54642 7.12148 9.31782 7.95204 8.85358C8.61344 9.24956 9.3602 9.48104 10.1296 9.52857C9.97346 9.91492 9.8934 10.3278 9.89382 10.7445V11.2623H5.07174C4.97175 11.262 4.87288 11.2833 4.78191 11.3248C4.69094 11.3663 4.61001 11.427 4.54469 11.5027C4.47876 11.5785 4.43047 11.668 4.40329 11.7648C4.37611 11.8615 4.37071 11.9631 4.3875 12.0621C4.3875 12.1084 4.47534 12.6308 4.63253 13.3659C4.65032 13.4571 4.64023 13.5515 4.6036 13.6368C4.56696 13.7221 4.50547 13.7945 4.42713 13.8444C4.34879 13.8943 4.25725 13.9194 4.16441 13.9165C4.07158 13.9137 3.98177 13.8829 3.90667 13.8282C2.45034 12.7649 0.896921 11.4703 0.411477 10.5596C0.391072 10.5224 0.367889 10.4869 0.342128 10.4532C0.118579 10.1351 -0.000939931 9.75556 5.56676e-06 9.36676V1.90941C5.56676e-06 1.40301 0.201175 0.917339 0.55926 0.559254C0.917344 0.20117 1.40301 0 1.90942 0H13.8097C14.3161 0 14.8018 0.20117 15.1599 0.559254C15.518 0.917339 15.7191 1.40301 15.7191 1.90941V7.45735L13.1902 7.43885ZM26.9999 10.7352V18.1741C27.0031 18.5632 26.8833 18.9434 26.6578 19.2606C26.6293 19.2989 26.606 19.3409 26.5885 19.3854C26.1261 20.3101 24.5496 21.5907 23.0933 22.6633C23.0182 22.718 22.9284 22.7487 22.8355 22.7516C22.7427 22.7545 22.6512 22.7294 22.5728 22.6795C22.4945 22.6296 22.433 22.5572 22.3963 22.4719C22.3597 22.3865 22.3496 22.2921 22.3674 22.201C22.5246 21.4613 22.6078 20.9388 22.6125 20.8926C22.6286 20.7937 22.623 20.6924 22.5959 20.5959C22.5689 20.4994 22.5212 20.41 22.456 20.3338C22.3909 20.2576 22.3099 20.1966 22.2187 20.155C22.1276 20.1134 22.0284 20.0921 21.9282 20.0928H13.1902C12.9387 20.0928 12.6896 20.0431 12.4574 19.9465C12.2251 19.85 12.0142 19.7085 11.8368 19.5302C11.6593 19.352 11.5189 19.1404 11.4235 18.9076C11.3281 18.6749 11.2796 18.4256 11.2808 18.1741V10.7352C11.2808 10.2288 11.482 9.74317 11.8401 9.38509C12.1981 9.02701 12.6838 8.82584 13.1902 8.82584H25.0905C25.5969 8.82584 26.0826 9.02701 26.4407 9.38509C26.7988 9.74317 26.9999 10.2288 26.9999 10.7352ZM22.1825 17.2078L21.3827 15.2152L19.8015 11.2577C19.7911 11.2306 19.7787 11.2044 19.7645 11.1791L19.7368 11.1328L19.6952 11.0774L19.6536 11.0311L19.6073 10.9895L19.5472 10.9433L19.5102 10.9156L19.4363 10.8739C19.4209 10.8719 19.4054 10.8719 19.39 10.8739L19.3161 10.8508H19.0479L18.9693 10.8739C18.954 10.8719 18.9384 10.8719 18.9231 10.8739L18.8537 10.9156L18.8029 10.9387L18.7474 10.9849L18.7012 11.0265L18.6595 11.0727L18.6133 11.1282C18.6133 11.1282 18.6133 11.1606 18.5902 11.1745L18.5486 11.2531L16.9304 15.2152L16.1306 17.2125C16.0939 17.2985 16.0748 17.391 16.0745 17.4846C16.0742 17.5781 16.0927 17.6708 16.129 17.757C16.1652 17.8433 16.2184 17.9214 16.2854 17.9867C16.3524 18.052 16.4318 18.1031 16.519 18.1371C16.6014 18.1699 16.6892 18.1872 16.7779 18.188C16.9192 18.185 17.0563 18.1393 17.1711 18.0567C17.2858 17.9742 17.3728 17.8587 17.4205 17.7256L18.04 16.1768H20.2777L20.8972 17.7256C20.9438 17.8594 21.0305 17.9756 21.1455 18.0583C21.2605 18.1411 21.3982 18.1863 21.5399 18.188C21.627 18.1867 21.7132 18.1695 21.7941 18.1371C21.8817 18.1037 21.9616 18.0528 22.0289 17.9876C22.0963 17.9224 22.1497 17.8443 22.186 17.7578C22.2223 17.6714 22.2407 17.5785 22.2401 17.4848C22.2395 17.391 22.2199 17.2984 22.1825 17.2125V17.2078ZM18.5856 14.7899H19.7137L19.1496 13.4029L18.5856 14.7899Z" fill="#ACB2C6"/>
</svg>
