<svg width="27" height="31" viewBox="0 0 27 31" fill="none" xmlns="http://www.w3.org/2000/svg">
<path d="M13.5 13.5C15.2902 13.5 17.0071 12.7888 18.273 11.523C19.5388 10.2571 20.25 8.54021 20.25 6.75C20.25 4.95979 19.5388 3.2429 18.273 1.97703C17.0071 0.711158 15.2902 0 13.5 0C11.7098 0 9.9929 0.711158 8.72703 1.97703C7.46116 3.2429 6.75 4.95979 6.75 6.75C6.75 8.54021 7.46116 10.2571 8.72703 11.523C9.9929 12.7888 11.7098 13.5 13.5 13.5ZM13.5 16.875C10.8799 16.873 8.29543 17.4821 5.95193 18.6539C3.60844 19.8256 1.57049 21.5277 0 23.625C1.57049 25.7223 3.60844 27.4244 5.95193 28.5961C8.29543 29.7679 10.8799 30.377 13.5 30.375C16.1201 30.377 18.7046 29.7679 21.0481 28.5961C23.3916 27.4244 25.4295 25.7223 27 23.625C25.4295 21.5277 23.3916 19.8256 21.0481 18.6539C18.7046 17.4821 16.1201 16.873 13.5 16.875Z" fill="#ACB2C6"/>
</svg>
