<svg width="27" height="27" viewBox="0 0 27 27" fill="none" xmlns="http://www.w3.org/2000/svg">
<path d="M19.2779 12.0538C19.3581 11.8637 19.4925 11.7014 19.6644 11.5874C19.8364 11.4733 20.0381 11.4124 20.2444 11.4124C20.4507 11.4124 20.6525 11.4733 20.8244 11.5874C20.9963 11.7014 21.1307 11.8637 21.2109 12.0538L26.9173 25.5402C27.0256 25.7969 27.0276 26.086 26.9229 26.344C26.8181 26.6021 26.6152 26.8081 26.3587 26.9166C26.2319 26.9718 26.0952 27.0005 25.9569 27.001H14.544C14.3708 27.0007 14.2004 26.9576 14.048 26.8755C13.8955 26.7934 13.7656 26.6749 13.67 26.5306C13.5743 26.3862 13.5159 26.2204 13.4997 26.048C13.4836 25.8756 13.5103 25.7019 13.5775 25.5423L19.2779 12.0538ZM12.4644 11.4128C12.6376 11.4132 12.808 11.4563 12.9605 11.5384C13.1129 11.6204 13.2428 11.7389 13.3384 11.8833C13.4341 12.0277 13.4926 12.1934 13.5087 12.3658C13.5248 12.5383 13.4981 12.712 13.4309 12.8716L7.72445 26.36C7.6443 26.5502 7.50985 26.7124 7.33794 26.8265C7.16603 26.9406 6.9643 27.0014 6.75797 27.0014C6.55165 27.0014 6.34991 26.9406 6.178 26.8265C6.00609 26.7124 5.87165 26.5502 5.7915 26.36L0.0850802 12.8716C0.0305002 12.7445 0.00160712 12.6078 6.51591e-05 12.4695C-0.0014768 12.3311 0.0243626 12.1939 0.0760954 12.0656C0.127828 11.9373 0.204433 11.8205 0.301497 11.7219C0.39856 11.6233 0.514167 11.5449 0.641657 11.4912C0.768477 11.436 0.905219 11.4073 1.04352 11.4068L12.4644 11.4128ZM20.2444 15.1562L16.1233 24.9013H24.3615L20.2404 15.1562H20.2444ZM10.8891 13.5126H2.65096L6.77405 23.2577L10.8891 13.5126ZM6.75797 4.31593e-07C7.68392 4.31593e-07 8.58908 0.274576 9.35897 0.789005C10.1289 1.30343 10.7289 2.03461 11.0833 2.89008C11.4376 3.74554 11.5303 4.68687 11.3497 5.59503C11.169 6.50318 10.7232 7.33738 10.0684 7.99212C9.41367 8.64686 8.57948 9.09275 7.67132 9.27339C6.76317 9.45404 5.82184 9.36132 4.96637 9.00698C4.11091 8.65263 3.37973 8.05257 2.8653 7.28268C2.35087 6.51278 2.0763 5.60762 2.0763 4.68168C2.07603 4.06679 2.19695 3.45789 2.43213 2.88976C2.66732 2.32164 3.01215 1.80543 3.44694 1.37064C3.88173 0.935856 4.39794 0.591016 4.96606 0.355833C5.53419 0.120651 6.14309 -0.000263636 6.75797 4.31593e-07ZM20.2444 4.31593e-07C21.4861 4.31593e-07 22.6769 0.493247 23.5549 1.37123C24.4328 2.24922 24.9261 3.44002 24.9261 4.68168C24.9261 5.60762 24.6515 6.51278 24.1371 7.28268C23.6227 8.05257 22.8915 8.65263 22.036 9.00698C21.1805 9.36132 20.2392 9.45404 19.3311 9.27339C18.4229 9.09275 17.5887 8.64686 16.934 7.99212C16.2792 7.33738 15.8333 6.50318 15.6527 5.59503C15.4721 4.68687 15.5648 3.74554 15.9191 2.89008C16.2735 2.03461 16.8735 1.30343 17.6434 0.789005C18.4133 0.274576 19.3185 4.31593e-07 20.2444 4.31593e-07ZM6.75797 2.09972C6.41891 2.09972 6.08316 2.16651 5.7699 2.29626C5.45665 2.42602 5.17201 2.6162 4.93226 2.85596C4.6925 3.09571 4.50232 3.38035 4.37256 3.6936C4.2428 4.00686 4.17602 4.34261 4.17602 4.68168C4.17602 5.02074 4.2428 5.35649 4.37256 5.66975C4.50232 5.983 4.6925 6.26764 4.93226 6.50739C5.17201 6.74715 5.45665 6.93733 5.7699 7.06709C6.08316 7.19685 6.41891 7.26363 6.75797 7.26363C7.44275 7.26363 8.09948 6.9916 8.58369 6.50739C9.0679 6.02318 9.33993 5.36645 9.33993 4.68168C9.33993 3.9969 9.0679 3.34017 8.58369 2.85596C8.09948 2.37175 7.44275 2.09972 6.75797 2.09972ZM20.2444 2.09972C19.5596 2.09972 18.9029 2.37175 18.4187 2.85596C17.9345 3.34017 17.6625 3.9969 17.6625 4.68168C17.6625 5.36645 17.9345 6.02318 18.4187 6.50739C18.9029 6.9916 19.5596 7.26363 20.2444 7.26363C20.9292 7.26363 21.5859 6.9916 22.0701 6.50739C22.5543 6.02318 22.8264 5.36645 22.8264 4.68168C22.8264 3.9969 22.5543 3.34017 22.0701 2.85596C21.5859 2.37175 20.9292 2.09972 20.2444 2.09972Z" fill="#ACB2C6"/>
</svg>
