<svg width="20" height="22" viewBox="0 0 20 22" fill="none" xmlns="http://www.w3.org/2000/svg">
<path d="M19.7469 16.1195C19.1229 15.0483 18.3789 13.0155 18.3789 9.41453V8.67034C18.3789 4.02576 14.6435 0.219394 10.0521 0.18539C10.0306 0.185285 10.0094 0.185181 9.98795 0.185181C7.7628 0.185324 5.62883 1.06937 4.05547 2.64284C2.48211 4.21632 1.59823 6.35035 1.59825 8.5755V9.41453C1.59825 13.0151 0.853958 15.048 0.229602 16.1191C0.0805734 16.374 0.00146174 16.6638 0.000258084 16.9591C-0.00094557 17.2544 0.0758012 17.5448 0.222746 17.8009C0.369692 18.057 0.581631 18.2699 0.837156 18.4179C1.09268 18.5659 1.38274 18.6438 1.67804 18.6439H18.2983C18.5935 18.6438 18.8836 18.5659 19.1391 18.4179C19.3946 18.27 19.6065 18.0572 19.7535 17.8011C19.9004 17.545 19.9772 17.2547 19.976 16.9594C19.9749 16.6642 19.8959 16.3744 19.7469 16.1195ZM13.3368 20.3219H6.62455C6.40203 20.3219 6.18862 20.4103 6.03127 20.5677C5.87392 20.725 5.78552 20.9384 5.78552 21.161C5.78552 21.3835 5.87392 21.5969 6.03127 21.7542C6.18862 21.9116 6.40203 22 6.62455 22H13.3368C13.5593 22 13.7727 21.9116 13.9301 21.7542C14.0874 21.5969 14.1758 21.3835 14.1758 21.161C14.1758 20.9384 14.0874 20.725 13.9301 20.5677C13.7727 20.4103 13.5593 20.3219 13.3368 20.3219Z" fill="black"/>
</svg>
