<svg width="29" height="26" viewBox="0 0 29 26" fill="none" xmlns="http://www.w3.org/2000/svg">
<path d="M24.5556 7.22222H4.33333C1.94278 7.22222 0 9.165 0 11.5556V20.2222H5.77778V26H23.1111V20.2222H28.8889V11.5556C28.8889 9.165 26.9461 7.22222 24.5556 7.22222ZM20.2222 23.1111H8.66667V15.8889H20.2222V23.1111ZM24.5556 13C23.7539 13 23.1111 12.3572 23.1111 11.5556C23.1111 10.7539 23.7539 10.1111 24.5556 10.1111C25.3572 10.1111 26 10.7539 26 11.5556C26 12.3572 25.3572 13 24.5556 13ZM23.1111 0H5.77778V5.77778H23.1111V0Z" fill="#E7E7E7"/>
</svg>
