<svg width="17" height="18" viewBox="0 0 17 18" fill="none" xmlns="http://www.w3.org/2000/svg">
<path d="M12.4684 10.2694C12.2976 10.184 11.1874 9.67157 11.0166 9.58617C10.8458 9.50077 10.675 9.50077 10.5042 9.67157C10.3334 9.84237 9.99182 10.3548 9.82102 10.5256C9.73562 10.6964 9.56482 10.6964 9.39402 10.611C8.79622 10.3548 8.19841 10.0132 7.68601 9.58617C7.25901 9.15917 6.83201 8.64677 6.49041 8.13437C6.40501 7.96356 6.49041 7.79276 6.57581 7.70736C6.66121 7.62196 6.74661 7.45116 6.91741 7.36576C7.00281 7.28036 7.08821 7.10956 7.08821 7.02416C7.17361 6.93876 7.17361 6.76796 7.08821 6.68256C7.00281 6.59716 6.57581 5.57236 6.40501 5.14536C6.31961 4.54756 6.14881 4.54756 5.97801 4.54756H5.55101C5.38021 4.54756 5.12401 4.71836 5.03861 4.80376C4.52621 5.31616 4.27001 5.91396 4.27001 6.59716C4.35541 7.36576 4.61161 8.13437 5.12401 8.81757C6.06341 10.184 7.25901 11.2942 8.71082 11.9774C9.13782 12.1482 9.47942 12.319 9.90642 12.4044C10.3334 12.5752 10.7604 12.5752 11.2728 12.4898C11.8706 12.4044 12.383 11.9774 12.7246 11.465C12.8954 11.1234 12.8954 10.7818 12.81 10.4402L12.4684 10.2694ZM14.6034 2.49795C11.2728 -0.832651 5.89261 -0.832651 2.562 2.49795C-0.1708 5.23076 -0.683201 9.41537 1.1956 12.746L0 17.1014L4.52621 15.9058C5.80721 16.589 7.17361 16.9306 8.54002 16.9306C13.237 16.9306 16.9946 13.173 16.9946 8.47597C17.08 6.25556 16.1406 4.12056 14.6034 2.49795ZM12.2976 14.454C11.1874 15.1372 9.90642 15.5642 8.54002 15.5642C7.25901 15.5642 6.06341 15.2226 4.95321 14.6248L4.69701 14.454L2.0496 15.1372L2.73281 12.5752L2.562 12.319C0.512401 8.90297 1.5372 4.63296 4.86781 2.49795C8.19841 0.362951 12.4684 1.47315 14.518 4.71836C16.5676 8.04897 15.6282 12.4044 12.2976 14.454Z" fill="#D8D8D8"/>
</svg>
