<svg width="28" height="22" viewBox="0 0 28 22" fill="none" xmlns="http://www.w3.org/2000/svg">
<path d="M24.5417 0.185181H2.72685C1.22027 0.185181 0.0136342 1.40545 0.0136342 2.91203L0 19.2731C0 20.7797 1.22027 22 2.72685 22H24.5417C26.0483 22 27.2685 20.7797 27.2685 19.2731V2.91203C27.2685 1.40545 26.0483 0.185181 24.5417 0.185181ZM24.5417 4.99807C24.5417 5.39671 24.3363 5.76724 23.9983 5.97851L15.2859 11.4237C14.2754 12.0553 12.9931 12.0553 11.9826 11.4237L3.27026 5.97851C2.93221 5.76723 2.72685 5.39671 2.72685 4.99807C2.72685 4.08997 3.72574 3.53634 4.49581 4.01763L11.9826 8.69686C12.9931 9.32845 14.2754 9.32845 15.2859 8.69686L22.7727 4.01763C23.5428 3.53633 24.5417 4.08997 24.5417 4.99807Z" fill="black"/>
</svg>
