<svg width="22" height="20" viewBox="0 0 22 20" fill="none" xmlns="http://www.w3.org/2000/svg">
<path d="M17.9461 6.00578H3.3372C1.61022 6.00578 0.206726 7.40927 0.206726 9.13625V15.3972H4.38069V19.5712H16.9026V15.3972H21.0765V9.13625C21.0765 7.40927 19.673 6.00578 17.9461 6.00578ZM14.8156 17.4842H6.46767V12.2667H14.8156V17.4842ZM17.9461 10.1797C17.3669 10.1797 16.9026 9.71539 16.9026 9.13625C16.9026 8.55711 17.3669 8.09276 17.9461 8.09276C18.5252 8.09276 18.9895 8.55711 18.9895 9.13625C18.9895 9.71539 18.5252 10.1797 17.9461 10.1797ZM16.9026 0.78833H4.38069V4.96229H16.9026V0.78833Z" fill="#ACB2C6"/>
</svg>
