<svg width="17" height="20" viewBox="0 0 17 20" fill="none" xmlns="http://www.w3.org/2000/svg">
<path d="M8.80026 0C6.6792 0.00238217 4.6457 0.846024 3.14589 2.34584C1.64607 3.84565 0.802431 5.87915 0.800049 8.00021C0.800049 11.2553 3.16311 13.9584 5.66618 16.8194C6.4582 17.7255 7.27822 18.6625 8.00824 19.6105C8.10166 19.7317 8.22164 19.8298 8.35895 19.8974C8.49626 19.9649 8.64724 20 8.80026 20C8.95327 20 9.10425 19.9649 9.24156 19.8974C9.37887 19.8298 9.49886 19.7317 9.59228 19.6105C10.3223 18.6625 11.1423 17.7255 11.9343 16.8194C14.4374 13.9584 16.8005 11.2553 16.8005 8.00021C16.7981 5.87915 15.9544 3.84565 14.4546 2.34584C12.9548 0.846024 10.9213 0.00238217 8.80026 0ZM8.80026 11.0003C8.2069 11.0003 7.62686 10.8243 7.1335 10.4947C6.64014 10.165 6.25562 9.69648 6.02855 9.14829C5.80148 8.1001 5.74207 7.99688 5.85782 7.41492C5.97358 6.83296 6.25931 6.2984 6.67888 5.87883C7.09845 5.45926 7.63301 5.17353 8.21497 5.05778C8.79693 4.94202 9.40015 5.00143 9.94834 5.2285C10.4965 5.45557 10.9651 5.84009 11.2947 6.33345C11.6244 6.82681 11.8003 7.40685 11.8003 8.00021C11.8003 8.79588 11.4843 9.55896 10.9216 10.1216C10.359 10.6842 9.59593 11.0003 8.80026 11.0003Z" fill="#333D61"/>
</svg>
