<svg width="27" height="28" viewBox="0 0 27 28" fill="none" xmlns="http://www.w3.org/2000/svg">
<path d="M26.4496 26.3957H23.4058V4.71129C23.3838 4.7168 23.3673 4.7168 23.3452 4.7168H3.65247C3.63046 4.7168 3.61395 4.7168 3.59193 4.71129V26.3957H0.550385C0.246187 26.3957 0 26.6419 0 26.9461C0 27.2503 0.246187 27.4965 0.550385 27.4965C4.5748 27.4966 22.4723 27.4966 26.4496 27.4965C26.7539 27.4965 27 27.2503 27 26.9461C27 26.6419 26.7539 26.3957 26.4496 26.3957ZM18.4578 13.1267H20.4337V16.5666H18.4578V13.1267ZM20.4337 7.11642V10.5563H18.4578V7.11669L20.4337 7.11642ZM15.3867 7.11642H17.357L17.357 10.5563H15.3867V7.11642ZM15.3867 13.1267H17.357L17.357 16.5666H15.3867V13.1267ZM11.611 7.11642V10.5563H9.64087V7.11669L11.611 7.11642ZM9.64081 19.1369H11.611V22.5768H9.64087L9.64081 19.1369ZM9.64087 16.5666V13.1268L11.611 13.1267V16.5666H9.64087ZM6.56951 7.11642H8.54015L8.5401 10.5563H6.56951V7.11642ZM6.56951 13.1267H8.54015L8.5401 16.5666H6.56951V13.1267ZM6.56951 19.1369H8.54015L8.5401 22.5768H6.56951V19.1369ZM14.1373 19.1369H20.4337V26.3957H14.1373V19.1369ZM3.65247 3.61603H23.3452C24.3414 3.61603 25.156 2.80702 25.156 1.80526C25.156 0.809011 24.3414 0 23.3452 0H3.65247C2.65628 0 1.84721 0.809011 1.84721 1.80526C1.84721 2.80702 2.65628 3.61603 3.65247 3.61603Z" fill="#ACB2C6"/>
</svg>
