<svg width="27" height="27" viewBox="0 0 27 27" fill="none" xmlns="http://www.w3.org/2000/svg">
<path d="M24.3545 18.4121L20.5368 17.9762C19.62 17.871 18.7182 18.1866 18.0719 18.8329L15.3063 21.5985C11.0528 19.4341 7.56574 15.9621 5.40138 11.6935L8.18198 8.91294C8.82828 8.26664 9.14392 7.36482 9.0387 6.44798L8.60283 2.66035C8.42246 1.1423 7.14489 0 5.61181 0H3.01157C1.31315 0 -0.0996904 1.41284 0.00552133 3.11126C0.802125 15.9471 11.0678 26.1977 23.8886 26.9943C25.587 27.0995 26.9999 25.6867 26.9999 23.9883V21.388C27.0149 19.87 25.8726 18.5924 24.3545 18.4121Z" fill="#ACB2C6"/>
</svg>
