<svg width="16" height="20" viewBox="0 0 16 20" fill="none" xmlns="http://www.w3.org/2000/svg">
<path d="M8.15853 0.78833C6.16656 0.790567 4.25681 1.58287 2.84828 2.9914C1.43974 4.39994 0.64744 6.30968 0.645203 8.30165C0.645203 11.3586 2.86445 13.8972 5.21518 16.5842C5.959 17.435 6.72912 18.315 7.41471 19.2054C7.50244 19.3192 7.61513 19.4113 7.74408 19.4748C7.87304 19.5382 8.01482 19.5712 8.15853 19.5712C8.30223 19.5712 8.44402 19.5382 8.57297 19.4748C8.70193 19.4113 8.81461 19.3192 8.90235 19.2054C9.58794 18.315 10.3581 17.435 11.1019 16.5842C13.4526 13.8972 15.6719 11.3586 15.6719 8.30165C15.6696 6.30968 14.8773 4.39994 13.4688 2.9914C12.0602 1.58287 10.1505 0.790567 8.15853 0.78833ZM8.15853 11.1192C7.60128 11.1192 7.05654 10.9539 6.59321 10.6443C6.12987 10.3347 5.76875 9.89469 5.5555 9.37986C5.34225 8.86503 5.28645 8.29853 5.39517 7.75199C5.50388 7.20545 5.77222 6.70342 6.16626 6.30938C6.56029 5.91535 7.06232 5.64701 7.60886 5.5383C8.1554 5.42958 8.72191 5.48538 9.23674 5.69863C9.75157 5.91188 10.1916 6.273 10.5012 6.73634C10.8108 7.19967 10.976 7.74441 10.976 8.30165C10.976 9.0489 10.6792 9.76554 10.1508 10.2939C9.62242 10.8223 8.90577 11.1192 8.15853 11.1192Z" fill="#ACB2C6"/>
</svg>
