<svg width="18" height="17" viewBox="0 0 18 17" fill="none" xmlns="http://www.w3.org/2000/svg">
<path d="M0.170898 1.97475C0.170898 1.40235 0.371241 0.930123 0.771909 0.558081C1.17258 0.186021 1.69346 0 2.33453 0C2.96417 0 3.47359 0.183154 3.86282 0.549495C4.26349 0.927273 4.46383 1.41952 4.46383 2.02626C4.46383 2.57576 4.26922 3.03366 3.87999 3.4C3.47932 3.77778 2.95272 3.96667 2.30019 3.96667H2.28302C1.65338 3.96667 1.14397 3.77778 0.754737 3.4C0.365506 3.02222 0.170898 2.54713 0.170898 1.97475ZM0.394131 17V5.52929H4.20625V17H0.394131ZM6.31837 17H10.1305V10.5949C10.1305 10.1943 10.1763 9.88517 10.2679 9.66768C10.4281 9.27845 10.6714 8.94932 10.9977 8.6803C11.3239 8.41127 11.7332 8.27677 12.2254 8.27677C13.5076 8.27677 14.1487 9.14107 14.1487 10.8697V17H17.9608V10.4232C17.9608 8.72895 17.5601 7.44394 16.7588 6.56818C15.9574 5.69242 14.8985 5.25455 13.582 5.25455C12.1052 5.25455 10.9547 5.8899 10.1305 7.16061V7.19495H10.1133L10.1305 7.16061V5.52929H6.31837C6.34126 5.89562 6.35272 7.03467 6.35272 8.94646C6.35272 10.8582 6.34126 13.5427 6.31837 17Z" fill="#D8D8D8"/>
</svg>
