<svg width="16" height="20" viewBox="0 0 16 20" fill="none" xmlns="http://www.w3.org/2000/svg">
<path d="M8.00021 0C5.87915 0.00238217 3.84565 0.846024 2.34584 2.34584C0.846024 3.84565 0.00238217 5.87915 0 8.00021C0 11.2553 2.36306 13.9584 4.86613 16.8194C5.65815 17.7255 6.47817 18.6625 7.20819 19.6105C7.30161 19.7317 7.42159 19.8298 7.5589 19.8974C7.69622 19.9649 7.84719 20 8.00021 20C8.15323 20 8.3042 19.9649 8.44151 19.8974C8.57882 19.8298 8.69881 19.7317 8.79223 19.6105C9.52225 18.6625 10.3423 17.7255 11.1343 16.8194C13.6374 13.9584 16.0004 11.2553 16.0004 8.00021C15.998 5.87915 15.1544 3.84565 13.6546 2.34584C12.1548 0.846024 10.1213 0.00238217 8.00021 0ZM8.00021 11.0003C7.40685 11.0003 6.82682 10.8243 6.33345 10.4947C5.84009 10.165 5.45557 9.69648 5.2285 9.14829C5.00143 8.6001 4.94202 7.99688 5.05778 7.41492C5.17353 6.83296 5.45926 6.2984 5.87883 5.87883C6.2984 5.45926 6.83296 5.17354 7.41492 5.05778C7.99688 4.94202 8.6001 5.00143 9.14829 5.2285C9.69648 5.45557 10.165 5.84009 10.4947 6.33345C10.8243 6.82681 11.0003 7.40685 11.0003 8.00021C11.0003 8.79588 10.6842 9.55896 10.1216 10.1216C9.55896 10.6842 8.79588 11.0003 8.00021 11.0003Z" fill="#ACB2C6"/>
</svg>
