<svg width="8" height="5" viewBox="0 0 8 5" fill="none" xmlns="http://www.w3.org/2000/svg">
<path d="M3.71835 4.46141C3.62056 4.46198 3.52362 4.44323 3.43309 4.40626C3.34255 4.36928 3.26021 4.31479 3.19078 4.24593L0.218528 1.27368C0.0786071 1.13376 0 0.943981 0 0.746102C0 0.548224 0.0786071 0.358449 0.218528 0.218528C0.35845 0.0786067 0.548224 0 0.746103 0C0.943981 0 1.13376 0.0786067 1.27368 0.218528L3.71835 2.67063L6.16303 0.225959C6.30518 0.104226 6.48802 0.0406147 6.67504 0.0478381C6.86205 0.0550615 7.03945 0.132587 7.17178 0.264923C7.30412 0.397258 7.38164 0.574656 7.38886 0.761667C7.39609 0.948678 7.33248 1.13153 7.21074 1.27368L4.2385 4.24593C4.10009 4.3832 3.91329 4.46059 3.71835 4.46141Z" fill="white"/>
</svg>
